<mxfile host="Electron" modified="2023-11-29T11:47:30.079Z" agent="Mozilla/5.0 (Windows NT 10.0; Win64; x64) AppleWebKit/537.36 (KHTML, like Gecko) draw.io/22.0.2 Chrome/114.0.5735.289 Electron/25.8.4 Safari/537.36" etag="KuJpDjfMFzAtKFdkjUA7" version="22.0.2" type="device">
  <diagram name="1 oldal" id="uH3k-t5EVTXZE5Odc-VX">
    <mxGraphModel dx="1434" dy="884" grid="1" gridSize="10" guides="1" tooltips="1" connect="1" arrows="1" fold="1" page="1" pageScale="1" pageWidth="827" pageHeight="1169" math="0" shadow="0">
      <root>
        <mxCell id="0" />
        <mxCell id="1" parent="0" />
        <mxCell id="cfvAuEQ3wXo9pH29EpIQ-15" value="ora" style="ellipse;whiteSpace=wrap;html=1;" parent="1" vertex="1">
          <mxGeometry x="378" y="180" width="100" height="60" as="geometry" />
        </mxCell>
        <mxCell id="cfvAuEQ3wXo9pH29EpIQ-19" value="ora_id" style="rhombus;whiteSpace=wrap;html=1;" parent="1" vertex="1">
          <mxGeometry x="90" y="300" width="80" height="50" as="geometry" />
        </mxCell>
        <mxCell id="pXl8Z-_lT7_WdHC_yuXI-1" value="I5XJTC_orarend" style="ellipse;whiteSpace=wrap;html=1;" parent="1" vertex="1">
          <mxGeometry x="378" y="70" width="100" height="60" as="geometry" />
        </mxCell>
        <mxCell id="pXl8Z-_lT7_WdHC_yuXI-2" value="helyszin" style="ellipse;whiteSpace=wrap;html=1;" parent="1" vertex="1">
          <mxGeometry x="258" y="370" width="100" height="60" as="geometry" />
        </mxCell>
        <mxCell id="pXl8Z-_lT7_WdHC_yuXI-3" value="oktato" style="ellipse;whiteSpace=wrap;html=1;" parent="1" vertex="1">
          <mxGeometry x="500" y="370" width="100" height="60" as="geometry" />
        </mxCell>
        <mxCell id="pXl8Z-_lT7_WdHC_yuXI-4" value="idopont" style="ellipse;whiteSpace=wrap;html=1;" parent="1" vertex="1">
          <mxGeometry x="378" y="370" width="100" height="60" as="geometry" />
        </mxCell>
        <mxCell id="pXl8Z-_lT7_WdHC_yuXI-5" value="szak" style="ellipse;whiteSpace=wrap;html=1;" parent="1" vertex="1">
          <mxGeometry x="620" y="370" width="100" height="60" as="geometry" />
        </mxCell>
        <mxCell id="pXl8Z-_lT7_WdHC_yuXI-6" value="targy" style="ellipse;whiteSpace=wrap;html=1;" parent="1" vertex="1">
          <mxGeometry x="140" y="370" width="100" height="60" as="geometry" />
        </mxCell>
        <mxCell id="pXl8Z-_lT7_WdHC_yuXI-8" value="nap" style="ellipse;whiteSpace=wrap;html=1;" parent="1" vertex="1">
          <mxGeometry x="258" y="555" width="100" height="60" as="geometry" />
        </mxCell>
        <mxCell id="pXl8Z-_lT7_WdHC_yuXI-9" value="tol" style="ellipse;whiteSpace=wrap;html=1;" parent="1" vertex="1">
          <mxGeometry x="378" y="555" width="100" height="60" as="geometry" />
        </mxCell>
        <mxCell id="pXl8Z-_lT7_WdHC_yuXI-10" value="ig" style="ellipse;whiteSpace=wrap;html=1;" parent="1" vertex="1">
          <mxGeometry x="500" y="555" width="100" height="60" as="geometry" />
        </mxCell>
        <mxCell id="pXl8Z-_lT7_WdHC_yuXI-11" value="" style="endArrow=none;html=1;rounded=0;entryX=0.5;entryY=1;entryDx=0;entryDy=0;exitX=0.5;exitY=0;exitDx=0;exitDy=0;" parent="1" source="pXl8Z-_lT7_WdHC_yuXI-4" target="cfvAuEQ3wXo9pH29EpIQ-15" edge="1">
          <mxGeometry width="50" height="50" relative="1" as="geometry">
            <mxPoint x="440" y="470" as="sourcePoint" />
            <mxPoint x="490" y="420" as="targetPoint" />
          </mxGeometry>
        </mxCell>
        <mxCell id="pXl8Z-_lT7_WdHC_yuXI-12" value="" style="endArrow=none;html=1;rounded=0;entryX=0.5;entryY=1;entryDx=0;entryDy=0;exitX=0.5;exitY=0;exitDx=0;exitDy=0;" parent="1" source="pXl8Z-_lT7_WdHC_yuXI-3" target="cfvAuEQ3wXo9pH29EpIQ-15" edge="1">
          <mxGeometry width="50" height="50" relative="1" as="geometry">
            <mxPoint x="440" y="470" as="sourcePoint" />
            <mxPoint x="490" y="420" as="targetPoint" />
          </mxGeometry>
        </mxCell>
        <mxCell id="pXl8Z-_lT7_WdHC_yuXI-13" value="" style="endArrow=none;html=1;rounded=0;entryX=0.5;entryY=1;entryDx=0;entryDy=0;exitX=0.5;exitY=0;exitDx=0;exitDy=0;" parent="1" source="pXl8Z-_lT7_WdHC_yuXI-2" target="cfvAuEQ3wXo9pH29EpIQ-15" edge="1">
          <mxGeometry width="50" height="50" relative="1" as="geometry">
            <mxPoint x="440" y="470" as="sourcePoint" />
            <mxPoint x="490" y="420" as="targetPoint" />
          </mxGeometry>
        </mxCell>
        <mxCell id="pXl8Z-_lT7_WdHC_yuXI-14" value="" style="endArrow=none;html=1;rounded=0;entryX=0.5;entryY=1;entryDx=0;entryDy=0;exitX=0.5;exitY=0;exitDx=0;exitDy=0;" parent="1" source="cfvAuEQ3wXo9pH29EpIQ-15" target="pXl8Z-_lT7_WdHC_yuXI-1" edge="1">
          <mxGeometry width="50" height="50" relative="1" as="geometry">
            <mxPoint x="530" y="170" as="sourcePoint" />
            <mxPoint x="490" y="420" as="targetPoint" />
          </mxGeometry>
        </mxCell>
        <mxCell id="pXl8Z-_lT7_WdHC_yuXI-15" value="" style="endArrow=none;html=1;rounded=0;entryX=0.5;entryY=0;entryDx=0;entryDy=0;exitX=0.5;exitY=1;exitDx=0;exitDy=0;" parent="1" source="pXl8Z-_lT7_WdHC_yuXI-4" target="pXl8Z-_lT7_WdHC_yuXI-10" edge="1">
          <mxGeometry width="50" height="50" relative="1" as="geometry">
            <mxPoint x="440" y="470" as="sourcePoint" />
            <mxPoint x="490" y="420" as="targetPoint" />
          </mxGeometry>
        </mxCell>
        <mxCell id="pXl8Z-_lT7_WdHC_yuXI-16" value="" style="endArrow=none;html=1;rounded=0;entryX=0.5;entryY=1;entryDx=0;entryDy=0;exitX=0.5;exitY=0;exitDx=0;exitDy=0;" parent="1" source="pXl8Z-_lT7_WdHC_yuXI-9" target="pXl8Z-_lT7_WdHC_yuXI-4" edge="1">
          <mxGeometry width="50" height="50" relative="1" as="geometry">
            <mxPoint x="440" y="470" as="sourcePoint" />
            <mxPoint x="490" y="420" as="targetPoint" />
          </mxGeometry>
        </mxCell>
        <mxCell id="pXl8Z-_lT7_WdHC_yuXI-17" value="" style="endArrow=none;html=1;rounded=0;entryX=0.5;entryY=1;entryDx=0;entryDy=0;exitX=0.5;exitY=0;exitDx=0;exitDy=0;" parent="1" source="pXl8Z-_lT7_WdHC_yuXI-8" target="pXl8Z-_lT7_WdHC_yuXI-4" edge="1">
          <mxGeometry width="50" height="50" relative="1" as="geometry">
            <mxPoint x="440" y="470" as="sourcePoint" />
            <mxPoint x="490" y="420" as="targetPoint" />
          </mxGeometry>
        </mxCell>
        <mxCell id="pXl8Z-_lT7_WdHC_yuXI-18" value="" style="endArrow=none;html=1;rounded=0;entryX=0.5;entryY=1;entryDx=0;entryDy=0;exitX=0.5;exitY=0;exitDx=0;exitDy=0;" parent="1" source="pXl8Z-_lT7_WdHC_yuXI-5" target="cfvAuEQ3wXo9pH29EpIQ-15" edge="1">
          <mxGeometry width="50" height="50" relative="1" as="geometry">
            <mxPoint x="440" y="470" as="sourcePoint" />
            <mxPoint x="490" y="420" as="targetPoint" />
          </mxGeometry>
        </mxCell>
        <mxCell id="pXl8Z-_lT7_WdHC_yuXI-19" value="" style="endArrow=none;html=1;rounded=0;entryX=0.5;entryY=1;entryDx=0;entryDy=0;exitX=0.5;exitY=0;exitDx=0;exitDy=0;" parent="1" source="pXl8Z-_lT7_WdHC_yuXI-6" target="cfvAuEQ3wXo9pH29EpIQ-15" edge="1">
          <mxGeometry width="50" height="50" relative="1" as="geometry">
            <mxPoint x="320" y="300" as="sourcePoint" />
            <mxPoint x="490" y="420" as="targetPoint" />
          </mxGeometry>
        </mxCell>
        <mxCell id="pXl8Z-_lT7_WdHC_yuXI-20" value="" style="endArrow=none;html=1;rounded=0;exitX=0.5;exitY=0;exitDx=0;exitDy=0;entryX=0.5;entryY=1;entryDx=0;entryDy=0;" parent="1" source="cfvAuEQ3wXo9pH29EpIQ-19" target="cfvAuEQ3wXo9pH29EpIQ-15" edge="1">
          <mxGeometry width="50" height="50" relative="1" as="geometry">
            <mxPoint x="440" y="470" as="sourcePoint" />
            <mxPoint x="330" y="190" as="targetPoint" />
          </mxGeometry>
        </mxCell>
        <mxCell id="Lh4vBxDJZQOIs2k84qmQ-1" value="" style="rounded=0;whiteSpace=wrap;html=1;" vertex="1" parent="1">
          <mxGeometry x="175" y="450" width="30" height="60" as="geometry" />
        </mxCell>
        <mxCell id="Lh4vBxDJZQOIs2k84qmQ-2" value="" style="rounded=0;whiteSpace=wrap;html=1;" vertex="1" parent="1">
          <mxGeometry x="293" y="450" width="30" height="60" as="geometry" />
        </mxCell>
        <mxCell id="Lh4vBxDJZQOIs2k84qmQ-3" value="" style="rounded=0;whiteSpace=wrap;html=1;" vertex="1" parent="1">
          <mxGeometry x="293" y="640" width="30" height="60" as="geometry" />
        </mxCell>
        <mxCell id="Lh4vBxDJZQOIs2k84qmQ-4" value="" style="rounded=0;whiteSpace=wrap;html=1;" vertex="1" parent="1">
          <mxGeometry x="413" y="640" width="30" height="60" as="geometry" />
        </mxCell>
        <mxCell id="Lh4vBxDJZQOIs2k84qmQ-5" value="" style="rounded=0;whiteSpace=wrap;html=1;" vertex="1" parent="1">
          <mxGeometry x="535" y="640" width="30" height="60" as="geometry" />
        </mxCell>
        <mxCell id="Lh4vBxDJZQOIs2k84qmQ-6" value="" style="rounded=0;whiteSpace=wrap;html=1;" vertex="1" parent="1">
          <mxGeometry x="535" y="450" width="30" height="60" as="geometry" />
        </mxCell>
        <mxCell id="Lh4vBxDJZQOIs2k84qmQ-7" value="" style="rounded=0;whiteSpace=wrap;html=1;" vertex="1" parent="1">
          <mxGeometry x="655" y="450" width="30" height="60" as="geometry" />
        </mxCell>
        <mxCell id="Lh4vBxDJZQOIs2k84qmQ-8" value="" style="endArrow=none;html=1;rounded=0;entryX=0.5;entryY=1;entryDx=0;entryDy=0;exitX=0.5;exitY=0;exitDx=0;exitDy=0;" edge="1" parent="1" source="Lh4vBxDJZQOIs2k84qmQ-1" target="pXl8Z-_lT7_WdHC_yuXI-6">
          <mxGeometry width="50" height="50" relative="1" as="geometry">
            <mxPoint x="400" y="480" as="sourcePoint" />
            <mxPoint x="450" y="430" as="targetPoint" />
          </mxGeometry>
        </mxCell>
        <mxCell id="Lh4vBxDJZQOIs2k84qmQ-9" value="" style="endArrow=none;html=1;rounded=0;entryX=0.5;entryY=1;entryDx=0;entryDy=0;exitX=0.5;exitY=0;exitDx=0;exitDy=0;" edge="1" parent="1" source="Lh4vBxDJZQOIs2k84qmQ-2" target="pXl8Z-_lT7_WdHC_yuXI-2">
          <mxGeometry width="50" height="50" relative="1" as="geometry">
            <mxPoint x="400" y="480" as="sourcePoint" />
            <mxPoint x="450" y="430" as="targetPoint" />
          </mxGeometry>
        </mxCell>
        <mxCell id="Lh4vBxDJZQOIs2k84qmQ-10" value="" style="endArrow=none;html=1;rounded=0;entryX=0.5;entryY=1;entryDx=0;entryDy=0;exitX=0.5;exitY=0;exitDx=0;exitDy=0;" edge="1" parent="1" source="Lh4vBxDJZQOIs2k84qmQ-6" target="pXl8Z-_lT7_WdHC_yuXI-3">
          <mxGeometry width="50" height="50" relative="1" as="geometry">
            <mxPoint x="400" y="480" as="sourcePoint" />
            <mxPoint x="450" y="430" as="targetPoint" />
          </mxGeometry>
        </mxCell>
        <mxCell id="Lh4vBxDJZQOIs2k84qmQ-11" value="" style="endArrow=none;html=1;rounded=0;entryX=0.5;entryY=1;entryDx=0;entryDy=0;exitX=0.5;exitY=0;exitDx=0;exitDy=0;" edge="1" parent="1" source="Lh4vBxDJZQOIs2k84qmQ-7" target="pXl8Z-_lT7_WdHC_yuXI-5">
          <mxGeometry width="50" height="50" relative="1" as="geometry">
            <mxPoint x="400" y="480" as="sourcePoint" />
            <mxPoint x="450" y="430" as="targetPoint" />
          </mxGeometry>
        </mxCell>
        <mxCell id="Lh4vBxDJZQOIs2k84qmQ-12" value="" style="endArrow=none;html=1;rounded=0;entryX=0.5;entryY=1;entryDx=0;entryDy=0;exitX=0.5;exitY=0;exitDx=0;exitDy=0;" edge="1" parent="1" source="Lh4vBxDJZQOIs2k84qmQ-3" target="pXl8Z-_lT7_WdHC_yuXI-8">
          <mxGeometry width="50" height="50" relative="1" as="geometry">
            <mxPoint x="400" y="480" as="sourcePoint" />
            <mxPoint x="450" y="430" as="targetPoint" />
          </mxGeometry>
        </mxCell>
        <mxCell id="Lh4vBxDJZQOIs2k84qmQ-13" value="" style="endArrow=none;html=1;rounded=0;entryX=0.5;entryY=0;entryDx=0;entryDy=0;exitX=0.5;exitY=1;exitDx=0;exitDy=0;" edge="1" parent="1" source="pXl8Z-_lT7_WdHC_yuXI-9" target="Lh4vBxDJZQOIs2k84qmQ-4">
          <mxGeometry width="50" height="50" relative="1" as="geometry">
            <mxPoint x="400" y="480" as="sourcePoint" />
            <mxPoint x="450" y="430" as="targetPoint" />
          </mxGeometry>
        </mxCell>
        <mxCell id="Lh4vBxDJZQOIs2k84qmQ-14" value="" style="endArrow=none;html=1;rounded=0;entryX=0.5;entryY=0;entryDx=0;entryDy=0;exitX=0.5;exitY=1;exitDx=0;exitDy=0;" edge="1" parent="1" source="pXl8Z-_lT7_WdHC_yuXI-10" target="Lh4vBxDJZQOIs2k84qmQ-5">
          <mxGeometry width="50" height="50" relative="1" as="geometry">
            <mxPoint x="400" y="480" as="sourcePoint" />
            <mxPoint x="450" y="430" as="targetPoint" />
          </mxGeometry>
        </mxCell>
      </root>
    </mxGraphModel>
  </diagram>
</mxfile>
